<?xml version="1.0" standalone="no"?><!DOCTYPE svg PUBLIC "-//W3C//DTD SVG 1.1//EN" "http://www.w3.org/Graphics/SVG/1.1/DTD/svg11.dtd"><svg t="1600939167973" class="icon" viewBox="0 0 1024 1024" version="1.1" xmlns="http://www.w3.org/2000/svg" p-id="6102" xmlns:xlink="http://www.w3.org/1999/xlink" width="200" height="200"><defs><style type="text/css"></style></defs><path d="M512 992.32c0.96 0 2.24-0.32 3.2-0.32-4.48 0-8.96-0.32-13.44-0.32 3.52 0.32 6.72 0.64 10.24 0.64zM473.28 990.4c-5.44-0.32-10.88-0.96-16-1.28 5.44 0.32 10.56 0.64 16 1.28zM512 31.68C246.72 31.68 31.68 246.72 31.68 512c0 159.04 77.76 299.52 196.8 386.88-3.2-2.88-4.8-4.48-4.48-4.48 1.92-23.68 6.4-55.36 9.92-78.4 4.48-30.08 21.12-56 40.32-77.76 31.68-38.72 81.28-59.2 130.24-57.92 18.56 0 64.32 15.68 96.64 22.72l-78.72-84.48 215.36-326.72 344.96 316.8c6.4-31.04 9.6-63.36 9.6-96.32C992.32 246.72 777.28 31.68 512 31.68z" fill="#B2D7F5" p-id="6103"></path><path d="M422.08 618.24l78.72 84.48c8.64 1.92 16.64 3.2 22.4 3.2 27.2 0 108.48-25.92 137.6-25.92 62.72 1.92 119.68 46.08 145.28 104 10.88 29.44 12.8 61.12 17.28 92.16 79.68-68.16 137.28-161.28 159.04-268.16L637.44 291.2l-215.36 327.04z" fill="#A9D1F1" p-id="6104"></path><path d="M501.76 991.68zM457.28 989.12c-85.12-9.6-163.2-41.92-228.8-89.92 17.92 16.64 92.48 75.2 228.8 89.92z" fill="#FFFFFF" p-id="6105"></path><path d="M500.8 702.72c-32-6.72-78.08-22.72-96.64-22.72-48.64-0.96-98.56 19.2-130.24 57.92-19.2 21.76-35.52 47.68-40.32 77.76-3.2 23.36-7.68 55.04-9.6 78.72-0.32 0 1.28 1.6 4.48 4.48 65.6 48.32 143.68 80.32 228.8 89.92 5.12 0.64 10.56 0.96 16 1.28 9.28 0.64 18.88 1.28 28.48 1.28 4.48 0.64 8.96 0.64 13.44 0.64 74.88-0.64 145.28-18.56 208.32-49.28l-222.72-240z" fill="#FFFFFF" p-id="6106"></path><path d="M660.8 680c-29.12 0-110.4 25.92-137.6 25.92-5.76 0-13.76-1.28-22.4-3.2l222.72 240c36.16-17.92 69.44-40.32 99.84-66.24-4.48-31.04-6.4-62.72-17.28-92.16-25.6-57.92-82.24-102.08-145.28-104.32zM403.84 248.32c-25.28 0-45.12 20.16-45.12 45.44v191.68c-0.96 32.64 11.52 65.6 27.52 93.76 29.76 46.4 83.52 74.56 137.92 77.12h5.12c32.64-1.6 65.28-12.16 93.12-30.08 1.6-0.96 2.56-1.92 3.52-2.56 40.64-31.68 69.76-80 68.8-132.8-0.96-40.64 3.52-81.6-6.4-121.28-0.64-1.92-0.96-4.16-1.92-6.08-15.04-38.4-40.64-73.6-78.08-92.16-0.96-0.64-1.92-0.96-2.56-1.92-37.12-23.68-83.52-20.48-126.4-21.12-24 0.96-49.6 0-75.52 0z" fill="#FFFFFF" p-id="6107"></path></svg>